<?xml version="1.0" encoding="UTF-8"?>
<svg width="130px" height="103px" viewBox="0 0 130 103" version="1.1" xmlns="http://www.w3.org/2000/svg" xmlns:xlink="http://www.w3.org/1999/xlink">
    <!-- Generator: Sketch 55 (78076) - https://sketchapp.com -->
    <title>Email</title>
    <desc>Created with Sketch.</desc>
    <g id="Page-1" stroke="none" stroke-width="1" fill="none" fill-rule="evenodd">
        <g id="Desktop-HD" transform="translate(-449.000000, -153.000000)" fill="#000000" fill-rule="nonzero">
            <g id="Email" transform="translate(449.000000, 153.000000)">
                <path d="M12.4683203,31.6694727 C14.1116016,32.8290625 19.0650586,36.2730469 27.3289453,41.9996484 C35.5930859,47.72625 41.9239844,52.1355859 46.3218945,55.2279102 C46.8050781,55.566875 47.8316211,56.3037109 49.4020313,57.4394336 C50.9726953,58.575918 52.2777734,59.4942969 53.31625,60.1948242 C54.3554883,60.8950977 55.6118164,61.6806836 57.0865039,62.5503125 C58.5606836,63.4191797 59.9503125,64.0727344 61.2551367,64.5053906 C62.5602148,64.9416016 63.7683008,65.1576758 64.8796484,65.1576758 L64.9525195,65.1576758 L65.0256445,65.1576758 C66.1369922,65.1576758 67.3455859,64.9413477 68.6506641,64.5053906 C69.9549805,64.0727344 71.3458789,63.418418 72.8187891,62.5503125 C74.2924609,61.679668 75.5487891,60.8948437 76.5880273,60.1948242 C77.6272656,59.4942969 78.9313281,58.575918 80.5025,57.4394336 C82.0726563,56.3026953 83.1004688,55.566875 83.5836523,55.2279102 C88.029043,52.1355859 99.3387891,44.2820117 117.509336,31.6679492 C121.037109,29.2042969 123.984453,26.2315625 126.352129,22.7517773 C128.721582,19.2735156 129.905039,15.6246289 129.905039,11.8071484 C129.905039,8.61707031 128.756621,5.88630859 126.460801,3.61511719 C124.165234,1.34341797 121.446406,0.208203125 118.306094,0.208203125 L11.5981836,0.208203125 C7.8771875,0.208203125 5.01363281,1.46453125 3.00802734,3.9771875 C1.00267578,6.49035156 0,9.63167969 0,13.400918 C0,16.4455078 1.32945313,19.7447656 3.98708984,23.2966602 C6.64447266,26.8488086 9.47248047,29.64 12.4683203,31.6694727 Z" id="Shape"></path>
                <path d="M122.655,39.425293 C106.805156,50.1530859 94.77,58.4903516 86.5553711,64.4353125 C83.8007422,66.4642773 81.5661133,68.0481445 79.8499609,69.1831055 C78.1338086,70.3188281 75.8514453,71.4786719 72.9995703,72.6621289 C70.1487109,73.8473633 67.4918359,74.4382031 65.0266602,74.4382031 L64.9527734,74.4382031 L64.8799023,74.4382031 C62.4152344,74.4382031 59.7568359,73.8473633 56.9059766,72.6621289 C54.0551172,71.4786719 51.7712305,70.3188281 50.0555859,69.1831055 C48.3404492,68.0481445 46.1050586,66.4642773 43.3506836,64.4353125 C36.8260547,59.6512109 24.8167969,51.3134375 7.32240234,39.425293 C4.56701172,37.5900586 2.12646484,35.4864453 0,33.1187695 L0,90.6755078 C0,93.8671094 1.13521484,96.5963477 3.40691406,98.867793 C5.67810547,101.14 8.40912109,102.275723 11.5989453,102.275723 L118.307109,102.275723 C121.496172,102.275723 124.226934,101.14 126.498379,98.867793 C128.770586,96.5955859 129.905293,93.8673633 129.905293,90.6755078 L129.905293,33.1187695 C127.826816,35.4374414 125.411152,37.5410547 122.655,39.425293 Z" id="Shape"></path>
            </g>
        </g>
    </g>
</svg>