<?xml version="1.0" encoding="UTF-8"?>
<svg width="61px" height="130px" viewBox="0 0 61 130" version="1.1" xmlns="http://www.w3.org/2000/svg" xmlns:xlink="http://www.w3.org/1999/xlink">
    <!-- Generator: Sketch 55 (78076) - https://sketchapp.com -->
    <title>Facebook</title>
    <desc>Created with Sketch.</desc>
    <g id="Page-1" stroke="none" stroke-width="1" fill="none" fill-rule="evenodd">
        <g id="Desktop-HD" transform="translate(-1154.000000, -126.000000)" fill="#000000" fill-rule="nonzero">
            <g id="Facebook" transform="translate(1154.000000, 126.000000)">
                <path d="M13.2958933,25.12529 C13.2958933,28.394594 13.2958933,42.9868677 13.2958933,42.9868677 L0.2099304,42.9868677 L0.2099304,64.828074 L13.2958933,64.828074 L13.2958933,129.732459 L40.177239,129.732459 L40.177239,64.829884 L58.21587,64.829884 C58.21587,64.829884 59.905267,54.3571926 60.724176,42.9063341 C58.376334,42.9063341 40.278886,42.9063341 40.278886,42.9063341 C40.278886,42.9063341 40.278886,30.1998144 40.278886,27.9726218 C40.278886,25.7406032 43.209768,22.7382367 46.106566,22.7382367 C48.997935,22.7382367 55.100394,22.7382367 60.752529,22.7382367 C60.752529,19.7645244 60.752529,9.4896984 60.752529,0.0003016 C53.2071,0.0003016 44.622877,0.0003016 40.839002,0.0003016 C12.6314153,-0.0012065 13.2958933,21.8617169 13.2958933,25.12529 Z" id="Path"></path>
            </g>
        </g>
    </g>
</svg>