<?xml version="1.0" encoding="UTF-8"?>
<svg width="61px" height="130px" viewBox="0 0 61 130" version="1.1" xmlns="http://www.w3.org/2000/svg" xmlns:xlink="http://www.w3.org/1999/xlink">
    <!-- Generator: Sketch 51.3 (57544) - http://www.bohemiancoding.com/sketch -->
    <title>Facebook</title>
    <desc>Created with Sketch.</desc>
    <defs></defs>
    <g id="Contact" stroke="none" stroke-width="1" fill="none" fill-rule="evenodd">
        <g id="Desktop-HD" transform="translate(-385.000000, -729.000000)" fill="#FFFFFF" fill-rule="nonzero">
            <g id="Facebook" transform="translate(313.000000, 691.000000)">
                <path d="M85.2958933,63.12529 C85.2958933,66.394594 85.2958933,80.9868677 85.2958933,80.9868677 L72.2099304,80.9868677 L72.2099304,102.828074 L85.2958933,102.828074 L85.2958933,167.732459 L112.177239,167.732459 L112.177239,102.829884 L130.21587,102.829884 C130.21587,102.829884 131.905267,92.3571926 132.724176,80.9063341 C130.376334,80.9063341 112.278886,80.9063341 112.278886,80.9063341 C112.278886,80.9063341 112.278886,68.1998144 112.278886,65.9726218 C112.278886,63.7406032 115.209768,60.7382367 118.106566,60.7382367 C120.997935,60.7382367 127.100394,60.7382367 132.752529,60.7382367 C132.752529,57.7645244 132.752529,47.4896984 132.752529,38.0003016 C125.2071,38.0003016 116.622877,38.0003016 112.839002,38.0003016 C84.6314153,37.9987935 85.2958933,59.8617169 85.2958933,63.12529 Z"></path>
            </g>
        </g>
    </g>
</svg>