<?xml version="1.0" encoding="UTF-8"?>
<svg width="130px" height="127px" viewBox="0 0 130 127" version="1.1" xmlns="http://www.w3.org/2000/svg" xmlns:xlink="http://www.w3.org/1999/xlink">
    <!-- Generator: Sketch 51.3 (57544) - http://www.bohemiancoding.com/sketch -->
    <title>Shape</title>
    <desc>Created with Sketch.</desc>
    <defs></defs>
    <g id="Contact" stroke="none" stroke-width="1" fill="none" fill-rule="evenodd">
        <g id="Desktop-HD" transform="translate(-963.000000, -411.000000)" fill="#FFFFFF">
            <g id="Github" transform="translate(925.000000, 373.000000)">
                <path d="M103.012188,38 C67.128125,38 38.0325,67.095625 38.0325,102.987812 C38.0325,131.6975 56.646875,156.05625 82.47625,164.6525 C85.72625,165.245625 86.75,163.32 86.75,161.5975 C86.75,160.05375 86.7825,155.739375 86.75,150.315938 C68.6759375,154.244375 64.9303125,141.75625 64.9303125,141.75625 C61.976875,134.24875 57.719375,132.25 57.719375,132.25 C51.820625,128.22 58.1621875,128.297188 58.1621875,128.297188 C64.6825,128.75625 68.119375,134.99625 68.119375,134.99625 C73.9165625,144.920938 83.3253125,142.052813 87.02625,140.395313 C87.619375,136.194688 89.30125,133.330625 91.1578125,131.705625 C76.7278125,130.064375 61.5584375,124.490625 61.5584375,99.5875 C61.5584375,92.4903125 64.089375,86.693125 68.2453125,82.15125 C67.575,80.51 65.340625,73.9003125 68.883125,64.950625 C68.883125,64.950625 74.3390625,63.20375 86.75,71.6171875 C91.93375,70.175 97.4953125,69.4559375 103.020313,69.4315625 C108.54125,69.4559375 114.09875,70.175 119.290625,71.6171875 C131.701563,63.2078125 137.149375,64.950625 137.149375,64.950625 C140.691875,73.9003125 138.461563,80.51 137.795313,82.15125 C141.95125,86.693125 144.474063,92.4903125 144.474063,99.5875 C144.474063,124.555625 129.280312,130.048125 114.801563,131.652812 C117.133438,133.66375 119.25,137.56375 119.25,143.625 C119.25,151.75 119.25,159.476875 119.25,161.61375 C119.25,163.3525 120.298125,165.274063 123.596875,164.644375 C149.401875,156.035937 168,131.689375 168,102.987812 C168,67.095625 138.904375,38 103.012188,38 Z" id="Shape"></path>
            </g>
        </g>
    </g>
</svg>