<?xml version="1.0" encoding="UTF-8"?>
<svg width="130px" height="127px" viewBox="0 0 130 127" version="1.1" xmlns="http://www.w3.org/2000/svg" xmlns:xlink="http://www.w3.org/1999/xlink">
    <!-- Generator: Sketch 55 (78076) - https://sketchapp.com -->
    <title>Github</title>
    <desc>Created with Sketch.</desc>
    <g id="Page-1" stroke="none" stroke-width="1" fill="none" fill-rule="evenodd">
        <g id="Desktop-HD" transform="translate(-816.000000, -129.000000)" fill="#000000" fill-rule="nonzero">
            <g id="Github" transform="translate(816.000000, 129.000000)">
                <path d="M65.012188,0 C29.128125,0 0.0325,29.095625 0.0325,64.987812 C0.0325,93.6975 18.646875,118.05625 44.47625,126.6525 C47.72625,127.245625 48.75,125.32 48.75,123.5975 C48.75,122.05375 48.7825,117.739375 48.75,112.315938 C30.6759375,116.244375 26.9303125,103.75625 26.9303125,103.75625 C23.976875,96.24875 19.719375,94.25 19.719375,94.25 C13.820625,90.22 20.1621875,90.297188 20.1621875,90.297188 C26.6825,90.75625 30.119375,96.99625 30.119375,96.99625 C35.9165625,106.920938 45.3253125,104.052813 49.02625,102.395313 C49.619375,98.194688 51.30125,95.330625 53.1578125,93.705625 C38.7278125,92.064375 23.5584375,86.490625 23.5584375,61.5875 C23.5584375,54.4903125 26.089375,48.693125 30.2453125,44.15125 C29.575,42.51 27.340625,35.9003125 30.883125,26.950625 C30.883125,26.950625 36.3390625,25.20375 48.75,33.6171875 C53.93375,32.175 59.4953125,31.4559375 65.020313,31.4315625 C70.54125,31.4559375 76.09875,32.175 81.290625,33.6171875 C93.701563,25.2078125 99.149375,26.950625 99.149375,26.950625 C102.691875,35.9003125 100.461563,42.51 99.795313,44.15125 C103.95125,48.693125 106.474063,54.4903125 106.474063,61.5875 C106.474063,86.555625 91.280312,92.048125 76.801563,93.652812 C79.133438,95.66375 81.25,99.56375 81.25,105.625 C81.25,113.75 81.25,121.476875 81.25,123.61375 C81.25,125.3525 82.298125,127.274063 85.596875,126.644375 C111.401875,118.035937 130,93.689375 130,64.987812 C130,29.095625 100.904375,0 65.012188,0 Z" id="Shape"></path>
            </g>
        </g>
    </g>
</svg>