<?xml version="1.0" encoding="UTF-8"?>
<svg width="110px" height="106px" viewBox="0 0 110 106" version="1.1" xmlns="http://www.w3.org/2000/svg" xmlns:xlink="http://www.w3.org/1999/xlink">
    <!-- Generator: Sketch 55 (78076) - https://sketchapp.com -->
    <title>LinkedIn</title>
    <desc>Created with Sketch.</desc>
    <g id="Page-1" stroke="none" stroke-width="1" fill="none" fill-rule="evenodd">
        <g id="Desktop-HD" transform="translate(-1130.000000, -384.000000)" fill="#000000" fill-rule="nonzero">
            <g id="LinkedIn" transform="translate(1130.000000, 384.000000)">
                <path d="M109.77464,64.45413 L109.77464,105.038515 L86.246381,105.038515 L86.246381,67.172227 C86.246381,57.659907 82.843271,51.168121 74.326821,51.168121 C67.825592,51.168121 63.956705,55.543109 62.25464,59.775174 C61.633944,61.288121 61.474176,63.393944 61.474176,65.511763 L61.474176,105.038515 L37.9380046,105.038515 C37.9380046,105.038515 38.2549884,40.9054524 37.9380046,34.2607889 L61.471879,34.2607889 L61.471879,44.2932483 C61.424153,44.3682831 61.362135,44.4491879 61.317216,44.5219258 L61.471879,44.5219258 L61.471879,44.2932483 C64.598585,39.4774942 70.182552,32.5980278 82.681206,32.5980278 C98.166195,32.5977726 109.77464,42.7139443 109.77464,64.45413 Z M13.3181671,0.142413 C5.2664733,0.142413 0,5.4236891 0,12.3687471 C0,19.1624594 5.1141067,24.6040139 13.0057773,24.6040139 L13.162993,24.6040139 C21.3706265,24.6040139 26.4750348,19.1634803 26.4750348,12.3687471 C26.3203712,5.4236891 21.3706265,0.142413 13.3181671,0.142413 Z M1.3978422,105.038515 L24.9250812,105.038515 L24.9250812,34.2607889 L1.3978422,34.2607889 L1.3978422,105.038515 Z" id="Shape"></path>
            </g>
        </g>
    </g>
</svg>