<?xml version="1.0" encoding="UTF-8"?>
<svg width="110px" height="106px" viewBox="0 0 110 106" version="1.1" xmlns="http://www.w3.org/2000/svg" xmlns:xlink="http://www.w3.org/1999/xlink">
    <!-- Generator: Sketch 51.3 (57544) - http://www.bohemiancoding.com/sketch -->
    <title>LinkedIn</title>
    <desc>Created with Sketch.</desc>
    <defs></defs>
    <g id="Contact" stroke="none" stroke-width="1" fill="none" fill-rule="evenodd">
        <g id="Desktop-HD" transform="translate(-361.000000, -423.000000)" fill="#FFFFFF" fill-rule="nonzero">
            <g id="LinkedIn" transform="translate(313.000000, 373.000000)">
                <path d="M157.77464,114.45413 L157.77464,155.038515 L134.246381,155.038515 L134.246381,117.172227 C134.246381,107.659907 130.843271,101.168121 122.326821,101.168121 C115.825592,101.168121 111.956705,105.543109 110.25464,109.775174 C109.633944,111.288121 109.474176,113.393944 109.474176,115.511763 L109.474176,155.038515 L85.9380046,155.038515 C85.9380046,155.038515 86.2549884,90.9054524 85.9380046,84.2607889 L109.471879,84.2607889 L109.471879,94.2932483 C109.424153,94.3682831 109.362135,94.4491879 109.317216,94.5219258 L109.471879,94.5219258 L109.471879,94.2932483 C112.598585,89.4774942 118.182552,82.5980278 130.681206,82.5980278 C146.166195,82.5977726 157.77464,92.7139443 157.77464,114.45413 Z M61.3181671,50.142413 C53.2664733,50.142413 48,55.4236891 48,62.3687471 C48,69.1624594 53.1141067,74.6040139 61.0057773,74.6040139 L61.162993,74.6040139 C69.3706265,74.6040139 74.4750348,69.1634803 74.4750348,62.3687471 C74.3203712,55.4236891 69.3706265,50.142413 61.3181671,50.142413 Z M49.3978422,155.038515 L72.9250812,155.038515 L72.9250812,84.2607889 L49.3978422,84.2607889 L49.3978422,155.038515 Z"></path>
            </g>
        </g>
    </g>
</svg>