<?xml version="1.0" encoding="UTF-8"?>
<svg width="103px" height="130px" viewBox="0 0 103 130" version="1.1" xmlns="http://www.w3.org/2000/svg" xmlns:xlink="http://www.w3.org/1999/xlink">
    <!-- Generator: Sketch 55 (78076) - https://sketchapp.com -->
    <title>StackOverflow</title>
    <desc>Created with Sketch.</desc>
    <g id="Page-1" stroke="none" stroke-width="1" fill="none" fill-rule="evenodd">
        <g id="Desktop-HD" transform="translate(-800.000000, -412.000000)" fill="#000000" fill-rule="nonzero">
            <g id="StackOverflow" transform="translate(800.000000, 412.000000)">
                <path d="M70.416667,113.75 L16.25,113.75 L16.25,102.916667 L70.416667,102.916667 L70.416667,113.75 Z M102.916667,50.5645833 L94.13625,0 L83.340833,1.8741667 L92.115833,52.43875 L102.916667,50.5645833 Z M70.611667,88.14 L17.8208333,82.85875 L16.8133333,93.77875 L69.652917,98.54 L70.611667,88.14 Z M73.525833,74.127083 L23.2808333,60.0004167 L20.4316667,70.584583 L70.839167,84.12625 L73.525833,74.127083 Z M80.0475,61.0566667 L35.1054167,34.71 L29.5316667,44.15125 L74.479167,70.503333 L80.0475,61.0566667 Z M90.155,53.1104167 L61.235417,10.7033333 L52.17875,16.8783333 L81.098333,59.2854167 L90.155,53.1104167 Z M75.833333,75.833333 L75.833333,119.166667 L10.8333333,119.166667 L10.8333333,75.833333 L0,75.833333 L0,130 L86.666667,130 L86.666667,75.833333 L75.833333,75.833333 Z" id="Shape"></path>
            </g>
        </g>
    </g>
</svg>