<?xml version="1.0" encoding="UTF-8"?>
<svg width="103px" height="130px" viewBox="0 0 103 130" version="1.1" xmlns="http://www.w3.org/2000/svg" xmlns:xlink="http://www.w3.org/1999/xlink">
    <!-- Generator: Sketch 51.3 (57544) - http://www.bohemiancoding.com/sketch -->
    <title>Shape</title>
    <desc>Created with Sketch.</desc>
    <defs></defs>
    <g id="Contact" stroke="none" stroke-width="1" fill="none" fill-rule="evenodd">
        <g id="Desktop-HD" transform="translate(-670.000000, -411.000000)" fill="#FFFFFF" fill-rule="nonzero">
            <g id="Stack-Overflow" transform="translate(619.000000, 373.000000)">
                <path d="M121.416667,151.75 L67.25,151.75 L67.25,140.916667 L121.416667,140.916667 L121.416667,151.75 Z M153.916667,88.5645833 L145.13625,38 L134.340833,39.8741667 L143.115833,90.43875 L153.916667,88.5645833 Z M121.611667,126.14 L68.8208333,120.85875 L67.8133333,131.77875 L120.652917,136.54 L121.611667,126.14 Z M124.525833,112.127083 L74.2808333,98.0004167 L71.4316667,108.584583 L121.839167,122.12625 L124.525833,112.127083 Z M131.0475,99.0566667 L86.1054167,72.71 L80.5316667,82.15125 L125.479167,108.503333 L131.0475,99.0566667 Z M141.155,91.1104167 L112.235417,48.7033333 L103.17875,54.8783333 L132.098333,97.2854167 L141.155,91.1104167 Z M126.833333,113.833333 L126.833333,157.166667 L61.8333333,157.166667 L61.8333333,113.833333 L51,113.833333 L51,168 L137.666667,168 L137.666667,113.833333 L126.833333,113.833333 Z" id="Shape"></path>
            </g>
        </g>
    </g>
</svg>