<?xml version="1.0" encoding="UTF-8"?>
<svg width="130px" height="106px" viewBox="0 0 130 106" version="1.1" xmlns="http://www.w3.org/2000/svg" xmlns:xlink="http://www.w3.org/1999/xlink">
    <!-- Generator: Sketch 51.3 (57544) - http://www.bohemiancoding.com/sketch -->
    <title>Shape</title>
    <desc>Created with Sketch.</desc>
    <defs></defs>
    <g id="Contact" stroke="none" stroke-width="1" fill="none" fill-rule="evenodd">
        <g id="Desktop-HD" transform="translate(-657.000000, -741.000000)" fill="#FFFFFF" fill-rule="nonzero">
            <g id="Twitter" transform="translate(619.000000, 691.000000)">
                <path d="M167.999788,62.4938072 C163.215065,64.6139542 158.081127,66.0518137 152.686977,66.6937418 C158.194771,63.3955229 162.41085,58.164085 164.409069,51.9495752 C159.242631,55.0039379 153.539837,57.2217974 147.463399,58.424085 C142.597533,53.233219 135.676307,50 127.99951,50 C113.271699,50 101.33018,61.9415196 101.33018,76.6612582 C101.33018,78.7489052 101.565752,80.7879085 102.020752,82.7376961 C79.86,81.6246242 60.2093954,71.0073203 47.0575163,54.8739379 C44.7585131,58.8058007 43.4506536,63.3872386 43.4506536,68.2777451 C43.4506536,77.5304739 48.1623039,85.6945588 55.3110294,90.4709967 C50.9405229,90.3248529 46.8300163,89.1225654 43.2314379,87.124134 L43.2314379,87.4572059 C43.2314379,100.373513 52.4272386,111.153317 64.6204739,113.606748 C62.3864706,114.207892 60.0307516,114.540964 57.5936765,114.540964 C55.8716013,114.540964 54.2062418,114.370392 52.5733824,114.045392 C55.9688889,124.646552 65.8146895,132.355637 77.4800654,132.566993 C68.3573366,139.715719 56.8544608,143.964297 44.3606536,143.964297 C42.2080065,143.964297 40.0876471,143.834297 38,143.598725 C49.8034477,151.178023 63.8164706,155.597173 78.8773529,155.597173 C127.934935,155.597173 154.750621,114.963464 154.750621,79.7239052 L154.661193,76.2714706 C159.900703,72.5343954 164.433497,67.8391013 167.999788,62.4938072 Z" id="Shape"></path>
            </g>
        </g>
    </g>
</svg>