<?xml version="1.0" encoding="UTF-8"?>
<svg width="130px" height="106px" viewBox="0 0 130 106" version="1.1" xmlns="http://www.w3.org/2000/svg" xmlns:xlink="http://www.w3.org/1999/xlink">
    <!-- Generator: Sketch 55 (78076) - https://sketchapp.com -->
    <title>Twitter</title>
    <desc>Created with Sketch.</desc>
    <g id="Page-1" stroke="none" stroke-width="1" fill="none" fill-rule="evenodd">
        <g id="Desktop-HD" transform="translate(-384.000000, -437.000000)" fill="#000000" fill-rule="nonzero">
            <g id="Twitter" transform="translate(384.000000, 437.000000)">
                <path d="M129.999788,12.4938072 C125.215065,14.6139542 120.081127,16.0518137 114.686977,16.6937418 C120.194771,13.3955229 124.41085,8.164085 126.409069,1.9495752 C121.242631,5.0039379 115.539837,7.2217974 109.463399,8.424085 C104.597533,3.233219 97.676307,0 89.99951,0 C75.271699,0 63.33018,11.9415196 63.33018,26.6612582 C63.33018,28.7489052 63.565752,30.7879085 64.020752,32.7376961 C41.86,31.6246242 22.2093954,21.0073203 9.0575163,4.8739379 C6.7585131,8.8058007 5.4506536,13.3872386 5.4506536,18.2777451 C5.4506536,27.5304739 10.1623039,35.6945588 17.3110294,40.4709967 C12.9405229,40.3248529 8.8300163,39.1225654 5.2314379,37.124134 L5.2314379,37.4572059 C5.2314379,50.373513 14.4272386,61.153317 26.6204739,63.606748 C24.3864706,64.207892 22.0307516,64.540964 19.5936765,64.540964 C17.8716013,64.540964 16.2062418,64.370392 14.5733824,64.045392 C17.9688889,74.646552 27.8146895,82.355637 39.4800654,82.566993 C30.3573366,89.715719 18.8544608,93.964297 6.3606536,93.964297 C4.2080065,93.964297 2.0876471,93.834297 0,93.598725 C11.8034477,101.178023 25.8164706,105.597173 40.8773529,105.597173 C89.934935,105.597173 116.750621,64.963464 116.750621,29.7239052 L116.661193,26.2714706 C121.900703,22.5343954 126.433497,17.8391013 129.999788,12.4938072 Z" id="Shape"></path>
            </g>
        </g>
    </g>
</svg>